<svg id="visual" viewBox="0 0 960 540" width="960" height="540" xmlns="http://www.w3.org/2000/svg" xmlns:xlink="http://www.w3.org/1999/xlink" version="1.1"><rect x="0" y="0" width="960" height="540" fill="#FFFFFF"></rect><g transform="translate(471.20204466499695 270.2925903504994)"><path d="M198.8 -223.7C253 -191.5 289 -124.4 289.5 -60.1C290 4.1 255 65.6 217.9 122.1C180.8 178.6 141.7 230.3 92.3 244.2C42.9 258.1 -16.9 234.3 -82.3 215.2C-147.8 196.2 -218.9 181.8 -250.8 138.9C-282.7 95.9 -275.3 24.3 -249.5 -30.5C-223.8 -85.4 -179.7 -123.5 -135 -157.4C-90.4 -191.4 -45.2 -221.2 13.6 -237.4C72.3 -253.5 144.6 -256 198.8 -223.7" fill="#BB004B"></path></g></svg>