<svg id="visual" viewBox="0 0 960 540" width="960" height="540" xmlns="http://www.w3.org/2000/svg" xmlns:xlink="http://www.w3.org/1999/xlink" version="1.1"><rect width="960" height="540" fill="#FFFFFF"></rect><g><g transform="translate(927 114)"><path d="M58.9 -18C68 8.8 61.2 41.9 41.1 56.5C21 71 -12.4 67.1 -34.9 50.2C-57.4 33.4 -68.9 3.6 -61.2 -21.2C-53.6 -46 -26.8 -65.9 -0.9 -65.6C24.9 -65.3 49.8 -44.8 58.9 -18Z" fill="none" stroke="#439400" stroke-width="17"></path></g><g transform="translate(4 59)"><path d="M45.9 -14.3C51.6 2.7 43 25 26 37.9C8.9 50.7 -16.5 54.2 -31.3 43.4C-46.2 32.5 -50.4 7.4 -43.5 -11.4C-36.5 -30.2 -18.2 -42.6 0.9 -42.9C20.1 -43.2 40.2 -31.4 45.9 -14.3Z" fill="none" stroke="#439400" stroke-width="17"></path></g><g transform="translate(173 164)"><path d="M42.4 -12.9C47.3 1.4 38.4 21 23.3 32C8.2 43 -13.2 45.3 -25.5 36.1C-37.7 26.9 -40.9 6.3 -35.2 -9.2C-29.4 -24.6 -14.7 -34.9 2 -35.5C18.7 -36.2 37.4 -27.2 42.4 -12.9Z" fill="none" stroke="#439400" stroke-width="17"></path></g><g transform="translate(445 416)"><path d="M51.3 -16.1C58.9 6.7 52.2 34.7 33.5 49C14.8 63.3 -16 63.8 -37.7 48.8C-59.3 33.8 -71.9 3.2 -64.1 -19.9C-56.3 -43.1 -28.2 -58.7 -3.1 -57.6C21.9 -56.6 43.7 -39 51.3 -16.1Z" fill="none" stroke="#439400" stroke-width="17"></path></g><g transform="translate(484 230)"><path d="M47.4 -16.6C53.6 3.7 45.4 27.4 28.2 40.3C10.9 53.2 -15.3 55.2 -30.6 43.8C-45.8 32.3 -50 7.4 -43 -14C-36.1 -35.3 -18.1 -52.9 1.3 -53.3C20.6 -53.7 41.2 -36.9 47.4 -16.6Z" fill="none" stroke="#439400" stroke-width="17"></path></g><g transform="translate(140 441)"><path d="M44.9 -13.7C51.2 5.1 44.8 28.9 29.3 40.1C13.8 51.3 -10.7 49.9 -27.7 37.7C-44.6 25.5 -54 2.4 -48.1 -15.6C-42.3 -33.7 -21.1 -46.8 -0.9 -46.5C19.2 -46.2 38.5 -32.5 44.9 -13.7Z" fill="none" stroke="#439400" stroke-width="17"></path></g><g transform="translate(813 349)"><path d="M22.8 -8.1C25.8 1.8 21.9 13.3 13.9 19.1C6 24.9 -6.1 24.9 -13.9 19.2C-21.7 13.5 -25.2 2.1 -22.2 -7.9C-19.1 -17.8 -9.6 -26.4 0.2 -26.4C9.9 -26.5 19.8 -18 22.8 -8.1Z" fill="none" stroke="#439400" stroke-width="17"></path></g><g transform="translate(639 476)"><path d="M25.4 -7.7C28.8 2.3 24.7 15.3 16.2 21.2C7.7 27.1 -5.2 26 -13.4 19.8C-21.7 13.5 -25.3 2.1 -22.2 -7.4C-19.2 -16.8 -9.6 -24.1 0.7 -24.4C11 -24.6 21.9 -17.6 25.4 -7.7Z" fill="none" stroke="#439400" stroke-width="17"></path></g><g transform="translate(940 539)"><path d="M32.9 -9.7C38 4.9 34.2 23.3 22.8 31.7C11.4 40 -7.6 38.3 -19.8 29C-32.1 19.7 -37.6 2.8 -33.2 -10.8C-28.8 -24.5 -14.4 -35 -0.2 -34.9C13.9 -34.9 27.8 -24.2 32.9 -9.7Z" fill="none" stroke="#439400" stroke-width="17"></path></g><g transform="translate(334 2)"><path d="M51.6 -17.3C58.2 3.5 48.8 28.9 30.4 42.5C11.9 56.1 -15.7 57.9 -32.2 45.6C-48.8 33.3 -54.2 7 -46.9 -14.7C-39.7 -36.3 -19.9 -53.3 1.3 -53.7C22.5 -54.2 45 -38 51.6 -17.3Z" fill="none" stroke="#439400" stroke-width="17"></path></g><g transform="translate(715 111)"><path d="M32.2 -11.5C36.4 2.7 31 19 20.1 26.8C9.1 34.6 -7.5 33.9 -19.9 25.4C-32.3 16.9 -40.5 0.5 -36.5 -13.3C-32.5 -27.2 -16.2 -38.5 -1.1 -38.1C13.9 -37.8 27.9 -25.7 32.2 -11.5Z" fill="none" stroke="#439400" stroke-width="17"></path></g><g transform="translate(537 34)"><path d="M59.9 -18.5C67.2 3.2 55.7 32 34.5 47.4C13.2 62.8 -17.6 64.8 -37.5 50.6C-57.4 36.4 -66.2 6 -58.2 -16.7C-50.1 -39.4 -25 -54.3 0.6 -54.5C26.3 -54.7 52.5 -40.2 59.9 -18.5Z" fill="none" stroke="#439400" stroke-width="17"></path></g></g></svg>