<svg id="visual" viewBox="0 0 960 540" width="960" height="540" xmlns="http://www.w3.org/2000/svg" xmlns:xlink="http://www.w3.org/1999/xlink" version="1.1"><rect width="960" height="540" fill="#FFFFFF"></rect><g><g transform="translate(220 428)"><path d="M0 -64.4L45.5 -45.5L64.4 0L45.5 45.5L0 64.4L-45.5 45.5L-64.4 0L-45.5 -45.5Z" fill="#29a693"></path></g><g transform="translate(492 321)"><path d="M0 -60L42.4 -42.4L60 0L42.4 42.4L0 60L-42.4 42.4L-60 0L-42.4 -42.4Z" fill="#29a693"></path></g><g transform="translate(529 21)"><path d="M0 -55L38.9 -38.9L55 0L38.9 38.9L0 55L-38.9 38.9L-55 0L-38.9 -38.9Z" fill="#29a693"></path></g><g transform="translate(841 295)"><path d="M0 -63L44.5 -44.5L63 0L44.5 44.5L0 63L-44.5 44.5L-63 0L-44.5 -44.5Z" fill="#29a693"></path></g><g transform="translate(315 240)"><path d="M0 -57L40.3 -40.3L57 0L40.3 40.3L0 57L-40.3 40.3L-57 0L-40.3 -40.3Z" fill="#29a693"></path></g><g transform="translate(147 215)"><path d="M0 -49L34.6 -34.6L49 0L34.6 34.6L0 49L-34.6 34.6L-49 0L-34.6 -34.6Z" fill="#29a693"></path></g><g transform="translate(736 120)"><path d="M0 -63L44.5 -44.5L63 0L44.5 44.5L0 63L-44.5 44.5L-63 0L-44.5 -44.5Z" fill="#29a693"></path></g><g transform="translate(946 102)"><path d="M0 -59L41.7 -41.7L59 0L41.7 41.7L0 59L-41.7 41.7L-59 0L-41.7 -41.7Z" fill="#29a693"></path></g><g transform="translate(367 412)"><path d="M0 -54L38.2 -38.2L54 0L38.2 38.2L0 54L-38.2 38.2L-54 0L-38.2 -38.2Z" fill="#29a693"></path></g><g transform="translate(19 57)"><path d="M0 -55L38.9 -38.9L55 0L38.9 38.9L0 55L-38.9 38.9L-55 0L-38.9 -38.9Z" fill="#29a693"></path></g><g transform="translate(708 506)"><path d="M0 -50L35.4 -35.4L50 0L35.4 35.4L0 50L-35.4 35.4L-50 0L-35.4 -35.4Z" fill="#29a693"></path></g><g transform="translate(529 150)"><path d="M0 -59L41.7 -41.7L59 0L41.7 41.7L0 59L-41.7 41.7L-59 0L-41.7 -41.7Z" fill="#29a693"></path></g><g transform="translate(203 47)"><path d="M0 -61L43.1 -43.1L61 0L43.1 43.1L0 61L-43.1 43.1L-61 0L-43.1 -43.1Z" fill="#29a693"></path></g><g transform="translate(869 529)"><path d="M0 -55L38.9 -38.9L55 0L38.9 38.9L0 55L-38.9 38.9L-55 0L-38.9 -38.9Z" fill="#29a693"></path></g><g transform="translate(127 530)"><path d="M0 -55L38.9 -38.9L55 0L38.9 38.9L0 55L-38.9 38.9L-55 0L-38.9 -38.9Z" fill="#29a693"></path></g><g transform="translate(32 356)"><path d="M0 -55L38.9 -38.9L55 0L38.9 38.9L0 55L-38.9 38.9L-55 0L-38.9 -38.9Z" fill="#29a693"></path></g><g transform="translate(636 270)"><path d="M0 -49L34.6 -34.6L49 0L34.6 34.6L0 49L-34.6 34.6L-49 0L-34.6 -34.6Z" fill="#29a693"></path></g><g transform="translate(575 468)"><path d="M0 -51L36.1 -36.1L51 0L36.1 36.1L0 51L-36.1 36.1L-51 0L-36.1 -36.1Z" fill="#29a693"></path></g><g transform="translate(364 45)"><path d="M0 -51L36.1 -36.1L51 0L36.1 36.1L0 51L-36.1 36.1L-51 0L-36.1 -36.1Z" fill="#29a693"></path></g><g transform="translate(15 213)"><path d="M0 -57L40.3 -40.3L57 0L40.3 40.3L0 57L-40.3 40.3L-57 0L-40.3 -40.3Z" fill="#29a693"></path></g><g transform="translate(951 392)"><path d="M0 -59L41.7 -41.7L59 0L41.7 41.7L0 59L-41.7 41.7L-59 0L-41.7 -41.7Z" fill="#29a693"></path></g><g transform="translate(670 4)"><path d="M0 -60L42.4 -42.4L60 0L42.4 42.4L0 60L-42.4 42.4L-60 0L-42.4 -42.4Z" fill="#29a693"></path></g><g transform="translate(826 11)"><path d="M0 -57L40.3 -40.3L57 0L40.3 40.3L0 57L-40.3 40.3L-57 0L-40.3 -40.3Z" fill="#29a693"></path></g><g transform="translate(317 534)"><path d="M0 -63L44.5 -44.5L63 0L44.5 44.5L0 63L-44.5 44.5L-63 0L-44.5 -44.5Z" fill="#29a693"></path></g></g></svg>